
<svg width="18px" height="19px" viewBox="0 0 18 19" version="1.1" xmlns="http://www.w3.org/2000/svg" xmlns:xlink="http://www.w3.org/1999/xlink">
    <!-- Generator: Sketch 50.2 (55047) - http://www.bohemiancoding.com/sketch -->
    <desc>Created with Sketch.</desc>
    <defs></defs>
    <g id="Page-1" stroke="none" stroke-width="1" fill="none" fill-rule="evenodd">
        <g id="ICU_Cal_Dieat-Plan" transform="translate(-335.000000, -182.000000)" fill="#0E303B" fill-rule="nonzero">
            <path d="M339.3125,182.00058 C339.186233,182.013777 339.068681,182.069188 338.980114,182.157259 L335.161932,185.851591 C335.059378,185.94971 335.001156,186.083131 335,186.222673 L335,199.416715 C335,200.284726 335.739253,201 336.636364,201 L348.636364,201 C349.533474,201 350.272727,200.284726 350.272727,199.416715 L350.272727,197.83343 C350.275509,197.6431 350.172159,197.466065 350.002251,197.370115 C349.832343,197.274164 349.622202,197.274164 349.452294,197.370115 C349.282387,197.466065 349.179036,197.6431 349.181818,197.83343 L349.181818,199.416715 C349.181818,199.718224 348.94798,199.944477 348.636364,199.944477 L336.636364,199.944477 C336.324747,199.944477 336.090909,199.718224 336.090909,199.416715 L336.090909,187.014316 L339.636364,187.014316 C339.937597,187.014287 340.181788,186.778017 340.181818,186.486554 L340.181818,183.056103 L348.636364,183.056103 C348.94798,183.056103 349.181818,183.282356 349.181818,183.583865 L349.181818,186.280397 C348.709877,186.581299 348.352756,186.973848 348.107955,187.418383 C347.967702,187.230151 347.819002,187.060886 347.664773,186.907114 C347.562724,186.802821 347.421157,186.743266 347.272727,186.742189 C347.048147,186.737077 346.843291,186.865695 346.756622,187.066223 C346.669954,187.266751 346.719196,187.498182 346.880682,187.649279 C347.312273,188.079587 347.646744,188.533895 347.767045,189.282042 C347.52976,189.198418 347.281551,189.150101 347.017045,189.150101 C345.1639,189.150101 343.727273,190.776591 343.727273,192.696 C343.727273,194.615409 345.1639,196.250145 347.017045,196.250145 C347.425755,196.250145 347.896525,196.204141 348.363636,196.011003 C348.830749,196.204142 349.301519,196.250145 349.710227,196.250145 C351.563373,196.250145 353,194.615409 353,192.696 C353,190.976707 351.844935,189.498635 350.272727,189.207825 L350.272727,188.729541 C350.522727,188.665182 350.76781,188.582035 351.005682,188.46566 C351.89337,188.031372 352.496823,187.294967 352.710227,186.470062 C352.780907,186.192881 352.610988,185.911562 352.326705,185.835098 C351.878196,185.713899 351.403995,185.673208 350.928977,185.711404 C350.708655,185.729121 350.490645,185.765234 350.272727,185.818606 L350.272727,183.583865 C350.272727,182.715854 349.533474,182.00058 348.636364,182.00058 L339.363636,182.00058 C339.3466,181.999807 339.329536,181.999807 339.3125,182.00058 Z M339.090909,183.534387 L339.090909,185.958793 L336.585227,185.958793 L339.090909,183.534387 Z M351.022727,186.758681 C351.135022,186.74972 351.243024,186.787875 351.355114,186.791666 C351.157234,187.076577 350.89243,187.339154 350.511364,187.525585 C350.094935,187.729316 349.643302,187.778721 349.190341,187.764727 C349.387339,187.478532 349.645153,187.216921 350.025568,187.030808 C350.3386,186.877662 350.680144,186.78602 351.022727,186.758681 Z M337.403409,188.069839 C337.208509,188.078641 337.033272,188.187392 336.943723,188.355118 C336.854175,188.522844 336.863923,188.724056 336.969294,188.882941 C337.074666,189.041826 337.259649,189.13424 337.454545,189.125363 L344,189.125363 C344.19671,189.128054 344.379681,189.028056 344.478848,188.86366 C344.578015,188.699263 344.578015,188.495938 344.478848,188.331542 C344.379681,188.167145 344.19671,188.067147 344,188.069839 L337.454545,188.069839 C337.437509,188.069066 337.420445,188.069066 337.403409,188.069839 Z M348.772727,188.828497 C348.908867,188.845513 349.043813,188.858296 349.181818,188.861482 L349.181818,189.216072 C349.073772,189.243189 348.969082,189.282763 348.866477,189.323273 C348.844561,189.150127 348.812058,188.985638 348.772727,188.828497 Z M347.017045,190.205625 C347.345575,190.205625 347.752474,190.363756 348.005682,190.576707 C348.210942,190.749408 348.51633,190.749408 348.721591,190.576707 C348.974799,190.363756 349.381698,190.205625 349.710227,190.205625 C350.893338,190.205625 351.909091,191.2767 351.909091,192.696 C351.909091,194.115299 350.893338,195.194622 349.710227,195.194622 C349.227673,195.194622 348.89291,195.169221 348.653409,195.02145 C348.476202,194.913951 348.251071,194.913951 348.073864,195.02145 C347.834361,195.16922 347.499598,195.194622 347.017045,195.194622 C345.833935,195.194622 344.818182,194.115299 344.818182,192.696 C344.818182,191.2767 345.833935,190.205625 347.017045,190.205625 Z M337.403409,190.444767 C337.208509,190.453569 337.033272,190.56232 336.943723,190.730046 C336.854175,190.897771 336.863923,191.098983 336.969294,191.257868 C337.074666,191.416754 337.259649,191.509167 337.454545,191.50029 L342.909091,191.50029 C343.105801,191.502982 343.288772,191.402984 343.387939,191.238587 C343.487106,191.074191 343.487106,190.870866 343.387939,190.706469 C343.288772,190.542073 343.105801,190.442075 342.909091,190.444767 L337.454545,190.444767 C337.437509,190.443993 337.420445,190.443993 337.403409,190.444767 Z M337.403409,192.555813 C337.208509,192.564615 337.033272,192.673367 336.943723,192.841092 C336.854175,193.008818 336.863923,193.21003 336.969294,193.368915 C337.074666,193.5278 337.259649,193.620214 337.454545,193.611337 L342.363636,193.611337 C342.560347,193.614028 342.743317,193.51403 342.842484,193.349634 C342.941651,193.185238 342.941651,192.981913 342.842484,192.817516 C342.743317,192.65312 342.560347,192.553122 342.363636,192.555813 L337.454545,192.555813 C337.437509,192.55504 337.420445,192.55504 337.403409,192.555813 Z M337.403409,194.930741 C337.208509,194.939543 337.033272,195.048294 336.943723,195.21602 C336.854175,195.383746 336.863923,195.584957 336.969294,195.743842 C337.074666,195.902728 337.259649,195.995141 337.454545,195.986264 L342.909091,195.986264 C343.105801,195.988956 343.288772,195.888958 343.387939,195.724562 C343.487106,195.560165 343.487106,195.35684 343.387939,195.192444 C343.288772,195.028047 343.105801,194.928049 342.909091,194.930741 L337.454545,194.930741 C337.437509,194.929967 337.420445,194.929967 337.403409,194.930741 Z" id="Shape"></path>
        </g>
    </g>
</svg>