
<svg width="14px" height="8px" viewBox="0 0 14 8" version="1.1" xmlns="http://www.w3.org/2000/svg" xmlns:xlink="http://www.w3.org/1999/xlink">
    <!-- Generator: Sketch 50.2 (55047) - http://www.bohemiancoding.com/sketch -->
    <desc>Created with Sketch.</desc>
    <defs></defs>
    <g id="Page-1" stroke="none" stroke-width="1" fill="none" fill-rule="evenodd" stroke-linecap="round" stroke-linejoin="round">
        <g id="ICU_Cal_Dieat-Plan" transform="translate(-414.000000, -51.000000)" stroke="#FFFFFF" stroke-width="1.20000005">
            <g id="Group" transform="translate(375.000000, 44.000000)">
                <path d="M46,13.6611236 C45.9999675,13.7364154 45.9791706,13.8121731 45.9364804,13.8750833 C45.8379313,14.0203096 45.6600301,14.0420768 45.539127,13.9237016 L40.1039951,8.60220964 C39.9830919,8.48383441 39.9649705,8.27014311 40.0635196,8.12491674 C40.1620687,7.97969038 40.3399699,7.95792323 40.460873,8.07629845 L45.8960049,13.3977904 C45.9643267,13.4646836 45.9998269,13.5620143 45.9999994,13.6602277 C45.9999795,13.5615694 46.0355629,13.4637141 46.1042326,13.3964767 L51.5374417,8.07659313 C51.658704,7.95786014 51.8372204,7.97956536 51.9361693,8.12507311 C52.0351182,8.27058087 52.0170297,8.48479032 51.8957674,8.60352331 L46.4625583,13.9234069 C46.341296,14.0421399 46.1627796,14.0204346 46.0638307,13.8749269 C46.0210852,13.8120683 46.0001813,13.7363885 46.0000012,13.6611236 Z" id="Combined-Shape-Copy"></path>
            </g>
        </g>
    </g>
</svg>