
<svg width="12px" height="12px" viewBox="0 0 12 12" version="1.1" xmlns="http://www.w3.org/2000/svg" xmlns:xlink="http://www.w3.org/1999/xlink">
    <!-- Generator: Sketch 50.2 (55047) - http://www.bohemiancoding.com/sketch -->
    <desc>Created with Sketch.</desc>
    <defs></defs>
    <g id="Page-1" stroke="none" stroke-width="1" fill="none" fill-rule="evenodd">
        <g id="ICU_Cal_Dieat-Plan" transform="translate(-742.000000, -414.000000)" fill="#999999" fill-rule="nonzero">
            <path d="M750.775,414.225 C750.475,413.925 750.025,413.925 749.725,414.225 L742.225,421.725 C742.075,421.875 742,422.025 742,422.25 L742,425.25 C742,425.7 742.3,426 742.75,426 L745.75,426 C745.975,426 746.125,425.925 746.275,425.775 L753.775,418.275 C754.075,417.975 754.075,417.525 753.775,417.225 L750.775,414.225 Z M745.45,424.5 L743.5,424.5 L743.5,422.55 L748,418.05 L749.95,420 L745.45,424.5 Z M751,418.95 L749.05,417 L750.25,415.8 L752.2,417.75 L751,418.95 Z" id="Shape"></path>
        </g>
    </g>
</svg>