
<svg width="26px" height="26px" viewBox="0 0 26 26" version="1.1" xmlns="http://www.w3.org/2000/svg" xmlns:xlink="http://www.w3.org/1999/xlink">
    <!-- Generator: Sketch 50.2 (55047) - http://www.bohemiancoding.com/sketch -->
    <desc>Created with Sketch.</desc>
    <defs></defs>
    <g id="Page-1" stroke="none" stroke-width="1" fill="none" fill-rule="evenodd">
        <g id="ICU_Cal_Notes" transform="translate(-711.000000, -1052.000000)">
            <g id="Group-2" transform="translate(711.000000, 1052.000000)">
                <path d="M13,0 C20.18,0 26,5.82 26,13 C26,20.18 20.18,26 13,26 C5.82,26 0,20.18 0,13 C0,5.82 5.82,0 13,0 Z" id="Fill-1" fill="#2989CB"></path>
                <path d="M18.2738,10.9664 L13.7078,6.4004 C13.5198,6.2124 13.2658,6.1074 13.0008,6.1074 C12.7348,6.1074 12.4808,6.2124 12.2938,6.4004 L7.7268,10.9664 C7.3358,11.3574 7.3358,11.9904 7.7268,12.3804 C7.9218,12.5754 8.1778,12.6734 8.4338,12.6734 C8.6898,12.6734 8.9458,12.5754 9.1408,12.3804 L11.9948,9.5274 L11.9948,19.0044 C11.9948,19.5574 12.4418,20.0044 12.9948,20.0044 C13.5468,20.0044 13.9948,19.5574 13.9948,19.0044 L13.9948,9.5154 L16.8598,12.3804 C17.2508,12.7714 17.8828,12.7714 18.2738,12.3804 C18.6648,11.9894 18.6648,11.3574 18.2738,10.9664" id="Send-Icon" fill="#FFFFFF"></path>
            </g>
        </g>
    </g>
</svg>