
<svg width="74px" height="44px" viewBox="0 0 74 44" version="1.1" xmlns="http://www.w3.org/2000/svg" xmlns:xlink="http://www.w3.org/1999/xlink">
    <!-- Generator: Sketch 50.2 (55047) - http://www.bohemiancoding.com/sketch -->
    <desc>Created with Sketch.</desc>
    <defs></defs>
    <g id="Page-1" stroke="none" stroke-width="1" fill="none" fill-rule="evenodd">
        <g id="Splash-Screen" transform="translate(-363.000000, -1001.000000)" fill="#FFFFFF">
            <g id="Group-2" transform="translate(363.000000, 1001.000000)">
                <path d="M29.7656957,11.9027562 C30.0761739,11.9027562 30.3271304,11.6519562 30.3271304,11.3427562 C30.3271304,11.0339562 30.0761739,10.7827562 29.7656957,10.7827562 C29.4532065,10.7827562 29.2026522,11.0339562 29.2026522,11.3427562 C29.2026522,11.6519562 29.4532065,11.9027562 29.7656957,11.9027562" id="Fill-2"></path>
                <path d="M36.5612283,23.3787562 C37.3961413,23.3787562 37.9575761,23.2667562 38.4100217,23.1007562 C38.8604565,22.9343562 39.2059239,22.7335562 39.4584891,22.5287562 C39.6973804,22.3339562 39.849,22.1367562 40.1035761,22.0071562 C40.3287935,21.8915562 40.6453043,21.8643562 41.0004239,21.8643562 C41.5095761,21.8643562 42.0842826,22.0207562 42.50375,22.2507562 L42.5640761,21.4739562 C42.2845652,21.3367562 41.2996413,20.9931562 40.4430109,20.9931562 C39.4705543,20.9931562 39.1033696,21.2539562 38.7438261,21.5763562 C38.3267717,21.9531562 37.7983152,22.4011562 36.3705978,22.4011562 C35.9901413,22.4011562 35.0772065,22.2987562 34.7064022,22.2987562 C34.4811848,22.2987562 34.30825,22.3551562 34.30825,22.3551562 C34.3762174,22.5671562 34.5218043,23.1523562 34.5218043,23.1523562 C34.8636522,23.1955562 35.4596739,23.3787562 36.5612283,23.3787562" id="Fill-3"></path>
                <path d="M32.1719022,21.0763562 C32.4610652,21.0763562 33.3020109,21.2039562 34.2732609,21.2967562 C34.8250435,21.3483562 35.4154348,21.3891562 35.9728478,21.3891562 C37.0643478,21.3891562 38.2588043,20.8731562 39.314913,20.3347562 L39.1085978,19.5871562 C38.6155326,19.8555562 37.6760543,20.1547562 36.8934239,20.2783562 C36.7007826,20.3095562 36.1417609,20.3171562 35.9825,20.2919562 C35.7182717,20.2515562 35.4017609,20.1567562 35.0619239,20.0951562 C34.5841413,20.0059562 34.0617174,19.9847562 33.7528478,19.9715562 C33.411,19.9559562 32.7992935,20.0139562 32.4984674,20.0335562 C31.3932935,20.0991562 30.6629457,20.3575562 29.9639674,20.8271562 C29.6104565,21.0647562 29.1596196,21.4531562 28.8121413,21.9223562 C28.9907065,21.9355562 29.5014674,22.0767562 29.5014674,22.0767562 C30.2551413,21.4395562 31.3872609,21.0763562 32.1719022,21.0763562" id="Fill-4"></path>
                <path d="M18.8547174,21.4375562 C19.3928261,21.4375562 19.6083913,21.6111562 19.9055978,21.7887562 C20.1131196,21.9167562 20.2768043,22.0575562 20.4320435,22.1967562 C20.763837,22.4919562 20.6689239,22.7627562 20.4083152,22.9671562 C20.2747935,23.0731562 20.1597717,23.2007562 19.8219457,23.4191562 C19.6590652,23.5259562 19.3775435,23.6975562 19.1853043,23.7783562 C18.8470761,23.9175562 18.6998804,23.9331562 18.5772174,23.9331562 C18.4529457,23.9331562 18.2546739,23.9139562 18.1440761,23.8039562 L17.2842283,24.3271562 C17.5420217,24.5279562 17.8352065,24.5955562 18.3286739,24.5955562 C18.886087,24.5955562 19.3308913,24.4759562 19.8802609,24.2619562 C20.592913,23.9815562 21.3932391,23.4307562 21.6594783,23.2799562 C22.2032174,22.9707562 22.7529891,22.7703562 23.3413696,22.7703562 C23.8597717,22.7703562 24.4441304,23.0755562 25.0988696,23.3867562 C25.8718478,23.7555562 26.81575,24.1167562 27.6836413,24.1167562 C28.2040543,24.1167562 28.7868043,24.0411562 29.3969022,23.9175562 C30.4803587,23.6975562 31.6454565,23.3339562 32.7856196,22.9499562 L32.4148152,22.2875562 C32.136913,22.3899562 31.1853696,22.6563562 30.161837,22.8823562 C29.31325,23.0679562 28.4525978,23.2351562 28.0061848,23.2351562 C27.641413,23.2351562 27.2118913,23.2087562 26.8270109,23.0907562 C26.1746848,22.8955562 25.5883152,22.6911562 25.5883152,22.1695562 C25.5883152,21.8083562 25.7435543,21.5535562 26.1827283,21.3775562 C26.8929674,21.0935562 28.0001522,21.1111562 28.5829022,21.1111562 C28.6914891,20.9951562 29.1326739,20.4679562 29.1326739,20.4679562 C28.8431087,20.4059562 28.2917283,20.3247562 27.7146087,20.3247562 C26.984663,20.3247562 26.3106196,20.4179562 25.7511957,20.6511562 C25.2327935,20.8679562 24.8249891,21.1807562 24.5297935,21.6035562 C24.4111522,21.7715562 24.2888913,21.9319562 24.1107283,21.9319562 C23.8151304,21.9319562 23.3023587,21.6927562 22.766663,21.6927562 C22.5334022,21.6927562 22.3351304,21.7403562 22.1296196,21.7403562 C21.587087,21.7403562 20.8808696,21.3483562 20.2514674,21.0143562 C19.8553261,20.8039562 19.4475217,20.6071562 18.9733587,20.6071562 C18.7770978,20.6071562 18.5076413,20.6551562 18.2683478,20.7555562 C17.8082609,20.9467562 17.3421413,21.2559562 17.1068696,21.4507562 L17.5283478,21.7387562 C17.7748804,21.6111562 18.2220978,21.4375562 18.8547174,21.4375562" id="Fill-5"></path>
                <path d="M56.9031848,27.4503562 C54.8774348,25.7511562 52.9172391,23.8923562 51.5365761,22.3723562 C49.1500761,19.7511562 45.8985,14.7503562 44.7880978,11.9203562 C44.3782826,10.8791562 43.5309022,11.2327562 43.9648478,12.2911562 C45.012913,14.8487562 47.4307826,18.6095562 49.9556304,21.7099562 C49.36725,21.4507562 48.6377065,21.1031562 48.2427717,20.9295562 C48.1088478,21.1479562 47.7770543,21.5803562 47.4352065,21.9355562 C47.038663,22.3451562 46.6312609,22.6775562 46.5049783,22.7931562 C46.2270761,23.0503562 46.0231739,23.0695562 45.8365652,22.7839562 C45.7513043,22.6483562 45.5707283,22.4051562 45.4778261,21.9839562 L44.9413261,21.3079562 C44.6537717,20.9487562 43.306087,19.1159562 42.8942609,18.4995562 C42.482837,17.8851562 41.94875,17.2283562 41.0844783,17.2283562 C40.0142935,17.2283562 39.6450978,18.4067562 39.5618478,19.4823562 L40.272087,19.1755562 C40.4373804,18.5091562 40.7659565,18.1615562 41.0844783,18.1615562 C41.3113043,18.1615562 41.5892065,18.4899562 41.5892065,18.7351562 C41.4866522,19.0231562 41.2996413,19.6179562 41.20875,20.0775562 L41.9077283,20.3135562 C41.9077283,19.9751562 42.0517065,19.3607562 42.2475652,19.0423562 C42.2475652,19.0423562 42.4418152,19.2067562 42.5138043,19.3399562 C42.5604565,19.4263562 42.9059239,19.9519562 43.306087,20.6511562 C43.6636196,21.2751562 44.0613696,22.0459562 44.4269457,22.6599562 C44.6030978,22.9555562 44.8057935,23.2203562 44.9413261,23.4291562 C45.1219022,23.7035562 45.2831739,23.8963562 45.4557065,23.9931562 C45.6169783,24.0815562 45.7903152,24.0839562 45.9302717,24.0839562 C46.3827174,24.0839562 46.589837,23.9351562 46.8970978,23.6747562 C47.4718043,23.1815562 47.9672826,22.4959562 48.4800543,21.8819562 L49.6877826,22.4247562 C50.1366087,22.6351562 50.6473696,22.8687562 51.1014239,23.0599562 C52.1309891,24.2231562 53.2848261,25.3627562 54.494163,26.4463562 L55.3158043,27.1667562 C55.5398152,27.3595562 55.7646304,27.5491562 55.9922609,27.7367562 L56.9031848,27.4503562" id="Fill-6"></path>
                <path d="M61.4376957,27.1007562 C59.3693152,22.5963562 56.6429783,17.0563562 54.3099674,13.6627562 L53.7662283,12.9015562 C52.9876196,11.8567562 52.144663,10.9911562 51.3194022,10.1511562 L50.678337,9.5235562 C49.0628043,7.9663562 47.2485978,6.4095562 45.8675326,5.3003562 C44.6481413,4.3235562 43.7818587,2.0711562 40.989163,2.0711562 C38.4719565,2.0711562 37.6117065,3.7727562 37.3301848,4.7699562 C37.1435761,5.4243562 37.062337,5.6499562 36.8873913,5.8959562 L35.28875,7.7887562 L37.1749457,7.6379562 L36.2193804,9.2159562 C36.7671413,9.1019562 40.0742174,8.4415562 40.7542935,9.5039562 C41.5795543,10.7883562 41.0165109,12.1831562 42.5604565,15.1059562 L43.2280652,16.2607562 C43.9958152,17.4895562 44.9059348,18.6963562 45.7143043,19.6487562 L44.9413261,21.3079562 L45.4778261,21.9839562 L46.6795217,19.4631562 C46.0658043,18.9187562 44.2302826,16.4635562 43.4709783,15.0979562 C41.7460543,11.9919562 42.4245217,10.3943562 41.3716304,8.9707562 C40.3967609,7.6495562 37.608087,8.2735562 37.608087,8.2735562 L38.6368478,6.8383562 L36.8564239,7.0547562 L37.6796739,6.0695562 C37.8546196,5.8147562 37.8956413,5.6603562 37.9672283,5.4143562 C38.3171196,4.1535562 39.2336739,2.9035562 40.9734783,2.9035562 C43.0865,2.9035562 43.6905652,4.5163562 45.1593043,5.8011562 C46.6465435,7.1031562 49.7637935,9.6063562 52.616413,12.8435562 C54.9164457,15.4531562 57.8639783,21.5203562 60.1286196,26.3091562 C57.6524348,25.1091562 53.4593696,20.9835562 51.7034783,17.8927562 L50.8745978,17.7963562 C52.7603913,21.3543562 56.8078696,25.4975562 60.8103043,27.7523562 L61.4376957,27.1007562" id="Fill-7"></path>
                <path d="M55.7047065,12.2295562 C56.3646739,11.7579562 57.1456957,11.3735562 57.9693478,11.0627562 C58.4756848,11.6731562 59.6705435,12.2079562 60.6180652,12.3335562 L60.4668478,13.3307562 C59.4155652,12.8031562 57.5575217,12.2659562 55.7047065,12.2295562 L54.873413,12.9403562 C57.3882065,12.9863562 58.9888587,13.4927562 61.0608587,14.3599562 L61.4722826,11.7271562 C60.6510435,11.6151562 59.3556413,11.3815562 58.9068152,10.7479562 C60.8022609,10.1739562 62.7696957,9.9575562 63.9311739,9.9735562 L63.9311739,6.7299562 C63.4131739,7.0315562 62.7600435,7.3135562 62.1443152,7.5031562 C61.3910435,7.7323562 60.7057391,7.8331562 60.5171196,7.5031562 C60.3091957,7.1399562 61.348413,6.4923562 62.419,5.9263562 L60.0083696,3.9351562 C59.6431957,4.4239562 58.813913,5.7911562 57.967337,6.6951562 C57.3672935,7.3367562 56.7475435,7.7575562 56.3940326,7.4951562 C56.2090326,7.3559562 56.2017935,6.9543562 56.3554239,6.4483562 C56.6482065,5.4763562 57.4191739,4.1263562 57.8893152,3.5311562 L54.5573043,3.2183562 C54.5573043,4.5723562 53.9178478,6.0639562 53.1307935,7.2691562 C52.4515217,8.3063562 51.467,9.0599562 50.678337,9.5235562 L51.3194022,10.1511562 C52.2938696,9.4771562 53.2442065,8.6523562 53.9781739,7.4775562 C54.5685652,6.5331562 55.118337,5.3915562 55.3238478,4.0551562 L56.4772826,4.1883562 C55.9974891,5.0631562 55.4557609,6.4211562 55.4151413,7.3099562 C55.4440978,7.9143562 55.5611304,8.0223562 55.8736196,8.2523562 C56.45275,8.6831562 57.1686196,8.3935562 57.8523152,7.8119562 C58.6059891,7.1723562 59.3459891,6.1003562 60.0976522,5.1303562 L61.0725217,5.9383562 C59.8370435,6.6951562 59.4875543,7.5043562 59.8643913,8.0415562 C60.0119891,8.2503562 60.3285,8.4067562 60.7226304,8.4183562 C61.1131413,8.4279562 61.5752391,8.3139562 62.0803696,8.1943562 C62.4354891,8.1091562 62.8207717,7.9859562 63.1758913,7.8775562 L63.1758913,9.1675562 C60.3695217,9.3667562 55.5804348,10.4967562 53.7662283,12.9015562 L54.3099674,13.6627562 C54.4676196,13.4059562 54.6578478,13.1659562 54.873413,12.9403562 L55.7047065,12.2295562" id="Fill-8"></path>
                <path d="M19.0123696,5.8899562 L19.3888043,6.1715562 C20.3757391,5.3723562 21.5291739,3.9175562 22.1798913,2.5483562 L21.8440761,2.3103562 C21.2146739,2.8843562 19.7133587,4.7559562 19.0123696,5.8899562" id="Fill-9"></path>
                <path d="M18.4336413,5.0147562 C17.8798478,3.0719562 19.2995217,1.9087562 20.7815326,2.0167562 C21.337337,0.952756195 22.2088478,0.739956195 23.1354565,1.2923562 C23.9973152,1.8083562 23.9257283,3.1199562 23.2070435,3.7343562 C23.4632283,4.9027562 22.4207935,6.5679562 20.8012391,6.4847562 C20.9930761,8.0979562 19.0043261,9.0155562 17.7982065,7.9623562 C16.7963913,7.0875562 17.0059239,5.6311562 18.4336413,5.0147562 Z M17.7479348,4.7175562 C17.2335543,4.8295562 16.9653043,5.0863562 16.7360652,5.6407562 C16.8896957,4.3791562 16.0467391,3.1699562 14.6580326,3.2627562 C14.7939674,1.0087562 12.5490326,-0.333643805 10.5639022,0.763556195 C9.39116304,-0.235243805 8.07967391,-0.0324438049 7.29141304,0.896756195 C6.5381413,1.7851562 6.56307609,3.2839562 8.0861087,4.0839562 C7.70122826,5.6407562 9.13497826,7.1879562 10.8204891,6.8287562 C10.917413,7.3075562 11.2709239,7.5647562 11.7374457,7.7559562 C11.0360543,7.7967562 10.7485,8.4899562 10.7485,8.4899562 C8.51321739,7.9203562 7.35938043,9.3975562 7.32238043,10.9487562 C5.69116304,11.4415562 5.23469565,13.4695562 6.48384783,14.6535562 C7.77482609,15.8823562 9.31555435,15.3779562 9.98718478,14.1223562 C11.4281739,14.6671562 12.9705109,13.7823562 13.0107283,12.1987562 C14.617413,12.3491562 15.2331413,11.0895562 15.0835326,9.7631562 L14.5743804,9.7223562 C14.3551957,10.9547562 13.766413,11.4859562 12.42275,11.4859562 C12.3644348,12.6699562 11.0923587,13.6975562 9.65136957,13.4251562 C9.24718478,14.3715562 8.06077174,14.6807562 7.25079348,13.8887562 C6.44282609,13.0967562 6.71067391,11.6075562 8.13638043,11.3387562 C8.07806522,9.8863562 9.49934783,8.9863562 11.5291196,9.0827562 C12.1062391,8.3719562 12.5723587,8.0707562 13.4362283,8.1539562 L13.4442717,7.7403562 C12.6342935,7.6323562 11.7213587,6.8691562 11.6537935,6.0483562 C9.92525,6.1855562 8.74205435,5.1999562 8.80077174,3.6551562 C7.68996739,3.1371562 7.88944565,2.0031562 8.24898913,1.5727562 C8.86873913,0.829156195 9.73461957,0.889156195 10.434,1.4895562 C12.4090761,0.738756195 13.9996739,2.2895562 13.9996739,3.9835562 C13.9996739,3.9835562 14.9222609,3.9659562 15.440663,4.5031562 C16.1263696,5.2159562 16.1263696,5.8359562 16.28925,6.5271562 C16.4428804,7.1799562 16.7730652,8.0475562 17.5790217,8.6735562 C19.0043261,9.7783562 21.212663,9.4787562 21.4378804,7.1475562 C23.335337,7.3151562 24.5820761,5.8339562 23.9566957,4.0223562 C25.2850761,3.0795562 25.02125,1.1363562 23.7720978,0.384756195 C22.2088478,-0.558043805 20.7602174,0.413956195 20.3697065,1.3483562 C18.4255978,0.904756195 16.8410326,2.8323562 17.7479348,4.7175562 Z" id="Fill-10"></path>
                <path d="M26.5185435,16.0115562 C26.6894674,15.3315562 25.7881957,15.2307562 25.6639239,15.8571562 C25.5320109,16.5275562 24.7123804,17.6707562 23.9357826,18.3875562 L24.2132826,18.6847562 C25.2327935,17.9275562 26.2989565,16.8791562 26.5185435,16.0115562" id="Fill-11"></path>
                <path d="M31.045413,4.7791562 C31.3603152,4.7791562 31.6165,4.5243562 31.6165,4.2095562 C31.6165,3.8963562 31.3603152,3.6395562 31.045413,3.6395562 C30.7289022,3.6395562 30.4747283,3.8963562 30.4747283,4.2095562 C30.4747283,4.5243562 30.7289022,4.7791562 31.045413,4.7791562" id="Fill-12"></path>
                <path d="M39.4777935,5.2987562 C39.4777935,4.9259562 39.7830435,4.6227562 40.1578696,4.6227562 C40.5330978,4.6227562 40.8359348,4.9259562 40.8359348,5.2987562 C40.8359348,5.6739562 40.5330978,5.9767562 40.1578696,5.9767562 C39.7830435,5.9767562 39.4777935,5.6739562 39.4777935,5.2987562" id="Fill-13"></path>
                <path d="M38.4019783,17.4503562 C33.982087,17.1127562 29.5815,17.3887562 29.5815,17.3887562 L29.8915761,16.5831562 C34.1180217,16.2779562 38.4643152,16.5831562 38.4643152,16.5831562 L38.4019783,17.4503562" id="Fill-14"></path>
                <path d="M11.6924022,20.5103562 C11.6924022,20.5103562 11.9429565,20.8427562 12.3330652,21.2559562 C12.4653804,21.4415562 12.6109674,21.5747562 12.795163,21.7467562 C13.6055435,22.5327562 14.7979891,23.1219562 16.0274348,23.3575562 C16.3765217,23.4235562 16.6874022,23.4755562 17.0332717,23.4755562 C17.5577065,23.4755562 18.0411196,23.1955562 18.3499891,22.9207562 L17.868587,22.3627562 C17.7129457,22.4087562 17.3904022,22.4087562 17.1768478,22.4087562 C15.394413,22.4087562 13.1317826,21.2483562 12.6109674,19.9039562 C12.5582826,19.7723562 12.4963478,19.6991562 12.5490326,19.5751562 C12.5993043,19.4519562 12.665663,19.1911562 12.7022609,18.9515562 C12.8072283,19.0715562 13.0227935,19.2507562 13.2962717,19.4263562 C13.960663,19.8495562 15.223087,20.4351562 15.4700217,20.5915562 C16.1086739,20.4079562 16.5864565,20.1935562 16.9653043,19.9983562 C17.3361087,19.8071562 17.84325,19.6351562 18.4296196,19.6351562 C19.732663,19.6351562 21.2299565,20.3731562 22.6363587,21.0627562 L23.5975543,20.6879562 C22.3488043,19.8131562 19.6337283,18.5903562 18.1227609,18.5903562 C17.2335543,18.5903562 16.3962283,19.2391562 15.8002065,19.2391562 C15.0678478,19.2391562 12.9705109,18.2215562 12.9705109,17.3735562 C12.9705109,16.7203562 14.3278478,16.3495562 16.5104457,16.0827562 C16.1340109,16.6371562 15.7744674,17.2111562 15.440663,17.8039562 L15.9960652,18.1111562 C19.4141413,13.1795562 22.9681522,9.9775562 25.9591196,8.0283562 C27.0465978,7.3191562 27.2935326,6.9043562 27.6719783,6.1295562 C28.598587,4.2443562 29.4725109,2.7935562 30.9931304,2.7935562 C31.7017609,2.7935562 32.2829022,3.1915562 32.6810543,3.6819562 L33.7801957,4.0103562 L32.6673804,4.7615562 L33.8055326,5.2139562 C32.3195,5.6291562 30.2901304,7.0683562 29.4668804,9.1791562 C27.8839239,9.2623562 27.1205978,10.5391562 26.6042065,11.6091562 C26.2543152,12.3299562 25.6993152,12.6175562 24.8889348,13.1643562 L18.4163478,17.6591562 L19.3075652,17.7827562 L25.287087,13.7923562 C26.4682717,13.0003562 27.0272935,12.4167562 27.3108261,11.8527562 C27.8642174,10.7479562 28.4626522,9.9271562 29.6357935,9.9271562 C30.2125109,9.9271562 30.8282391,10.1723562 31.3213043,10.6379562 L32.3717826,10.9779562 L31.2263913,11.6747562 L32.187587,12.2643562 C29.4415435,13.1199562 27.7419565,15.0783562 26.7554239,18.8219562 L27.48175,18.9843562 C27.844913,17.7463562 28.2060652,16.6087562 28.8487391,15.6039562 C30.4377283,15.5867562 32.0480326,15.5287562 33.6265652,15.5287562 C37.8409457,15.5287562 41.340663,15.7063562 43.2280652,16.2607562 L42.5604565,15.1059562 C40.540337,14.7615562 37.6100978,14.5863562 33.6265652,14.5863562 C32.2925543,14.5863562 30.938837,14.6343562 29.5947717,14.6499562 C30.4630652,13.7363562 31.7098043,12.9655562 33.6321957,12.3727562 L32.2692283,11.6251562 L33.7838152,10.7867562 L31.7194565,10.0215562 C31.3583043,9.6991562 30.9094783,9.4035562 30.3444239,9.2603562 C31.0068043,7.2379562 33.2573696,6.0559562 35.4170435,5.2411562 L33.9044674,4.6247562 L35.4287065,3.7943562 L33.0808152,3.0483562 C32.4670978,2.3299562 31.8787174,2.0031562 30.9738261,2.0031562 C28.7944457,2.0031562 27.8782935,3.8867562 27.0156304,5.5559562 C26.559163,6.4363562 26.2736196,6.8075562 25.5006413,7.3099562 C23.8243804,8.4011562 21.6904457,10.0699562 19.6514239,12.2079562 C18.5868696,11.4435562 16.4099022,9.2063562 15.8215217,7.9859562 C15.5882609,8.2735562 15.3570109,8.8995562 15.3570109,8.8995562 C15.5806196,9.1331562 18.1420652,11.7119562 19.0956196,12.8051562 C19.0236304,12.8843562 18.9520435,12.9635562 18.8804565,13.0443562 C17.8645652,13.2451562 15.2275109,13.4983562 14.3298587,13.3767562 L13.8251304,14.2675562 C14.49475,14.2019562 17.1165217,13.8943562 18.2044022,13.8307562 C17.8742174,14.2287562 17.5516739,14.6403562 17.235163,15.0631562 C13.86575,15.4455562 11.6127717,16.1331562 11.6127717,17.3735562 C11.6127717,17.5779562 11.6960217,17.8099562 11.6960217,18.0279562 C11.6960217,18.5475562 11.500163,18.7391562 11.1293587,18.9707562 C10.8884565,19.1235562 10.8727717,19.2279562 10.9761304,19.3703562 C11.5351522,20.2691562 9.79856522,20.7151562 11.0087065,22.3219562 L12.03425,22.3835562 C12.03425,22.3835562 11.0340435,21.8047562 11.6924022,20.5103562" id="Fill-15"></path>
                <path d="M10.3632174,2.6671562 L10.0290109,3.0071562 C10.5088043,3.6891562 12.6334891,5.5823562 13.7113152,6.2855562 L14.1074565,5.7967562 C13.400837,4.9699562 11.3923804,3.1871562 10.3632174,2.6671562" id="Fill-16"></path>
                <path d="M8.8968913,12.2099562 L9.2113913,12.5515562 C10.0213696,12.1615562 11.544,11.0411562 12.36725,10.2007562 L12.1400217,9.8663562 C11.1727935,10.2683562 9.67751087,11.3695562 8.8968913,12.2099562" id="Fill-17"></path>
                <path d="M55.8177174,26.1675562 C55.8177174,25.5791562 55.3395326,25.1019562 54.7479348,25.1019562 L53.1637717,25.1011562 C52.5713696,25.1011562 52.093587,25.5811562 52.093587,26.1699562 L52.0947935,42.6519562 C52.0947935,43.2411562 52.5721739,43.7183562 53.1641739,43.7183562 L54.7487391,43.7187562 C55.340337,43.7187562 55.8177174,43.2387562 55.8177174,42.6507562 L55.8177174,26.1675562" id="Fill-18"></path>
                <path d="M57.8374348,26.6059562 L57.8370326,27.3895562 C57.8370326,27.7135562 58.1032717,27.9755562 58.429837,27.9755562 L69.3617283,27.9755562 C69.8604239,27.9755562 70.2642065,27.5751562 70.2642065,27.0791562 L70.2646087,25.7519562 C70.2646087,25.2563562 69.8555978,24.8075562 69.3601196,24.8555562 C69.3601196,24.8555562 58.793,25.8871562 58.4523587,25.9251562 C58.0590326,25.9691562 57.8374348,26.2811562 57.8374348,26.6059562" id="Fill-19"></path>
                <path d="M48.9875978,43.7191562 C46.2685,43.7191562 44.5568478,41.6683562 44.5568478,39.3851562 L44.5544348,32.7899562 L43.7762283,32.7899562 C43.361587,32.7899562 43.0249674,32.4571562 43.0249674,32.0443562 L43.0249674,30.9403562 C43.0249674,30.5279562 43.3627935,30.1963562 43.7774348,30.1963562 L44.5544348,30.1975562 L44.5532283,26.1427562 C44.5532283,25.5687562 45.0189457,25.1031562 45.5960652,25.1031562 L47.1408152,25.1031562 C47.7179348,25.1031562 48.1844565,25.5719562 48.1844565,26.1459562 L48.1852609,30.1975562 L50.5942826,30.1971562 C51.0097283,30.1971562 51.3471522,30.5291562 51.3471522,30.9415562 L51.3471522,32.0455562 C51.3471522,32.4579562 51.0109348,32.7903562 50.5962935,32.7903562 L48.1852609,32.7899562 L48.1868696,38.8899562 C48.1868696,40.0879562 48.9168152,40.9051562 50.2210652,40.9051562 L50.4398478,40.9039562 C50.8898804,40.9039562 51.256663,41.2643562 51.256663,41.7119562 L51.256663,42.9107562 C51.256663,43.3591562 50.8918913,43.7191562 50.4410543,43.7191562 L48.9875978,43.7191562" id="Fill-20"></path>
                <path d="M23.5207391,29.7223562 C19.1245761,29.7223562 16.65925,33.1439562 16.65925,36.7499562 C16.65925,40.5915562 19.3003261,43.9751562 23.5496957,43.9751562 C26.4582174,43.9751562 29.3253152,42.4511562 29.8670435,39.9475562 C29.9402391,39.6099562 29.7114022,39.1667562 29.2332174,39.1655562 L27.1551848,39.1655562 C26.7775435,39.1655562 26.4690761,39.3451562 26.2832717,39.6159562 C25.6888587,40.4835562 24.8173478,40.9447562 23.529587,40.9447562 C21.7093478,40.9447562 20.4473261,39.5183562 20.3520109,37.9367562 L29.190587,37.9367562 C30.004587,37.9367562 30.3685543,37.4971562 30.3685543,36.7491562 C30.3685543,33.2331562 28.2756413,29.7223562 23.5207391,29.7223562 Z M23.5207391,32.5439562 C25.1435109,32.5439562 26.5442826,33.6923562 26.6866522,35.2463562 L20.3793587,35.2467562 C20.5209239,33.6923562 21.8979674,32.5439562 23.5207391,32.5439562 Z" id="Fill-21"></path>
                <path d="M63.7956413,29.7223562 C59.3994783,29.7223562 56.9341522,33.1439562 56.9341522,36.7499562 C56.9341522,40.5915562 59.5752283,43.9751562 63.8241957,43.9751562 C66.7327174,43.9751562 69.6002174,42.4511562 70.1419457,39.9475562 C70.2155435,39.6099562 69.9863043,39.1667562 69.5085217,39.1655562 L67.4296848,39.1655562 C67.0528478,39.1655562 66.7439783,39.3451562 66.5581739,39.6159562 C65.964163,40.4835562 65.0918478,40.9447562 63.804087,40.9447562 C61.9838478,40.9447562 60.7222283,39.5183562 60.6265109,37.9367562 L69.4654891,37.9367562 C70.279087,37.9367562 70.6430543,37.4971562 70.6430543,36.7491562 C70.6430543,33.2331562 68.5505435,29.7223562 63.7956413,29.7223562 Z M63.7956413,32.5439562 C65.4188152,32.5439562 66.8191848,33.6923562 66.9615543,35.2463562 L60.6538587,35.2467562 C60.7958261,33.6923562 62.1724674,32.5439562 63.7956413,32.5439562 Z" id="Fill-22"></path>
                <path d="M41.5815652,25.2867562 L12.9520109,25.2867562 C12.3004891,25.2867562 11.77525,25.8119562 11.77525,26.4591562 L11.8741848,37.6423562 C11.8741848,37.6423562 5.70443478,26.5595562 5.38309783,25.9939562 C5.08066304,25.4619562 4.43115217,24.9723562 3.53229348,24.9723562 L1.17796739,24.9723562 C0.52725,24.9723562 0,25.4967562 0,26.1451562 L0.00120652174,42.5455562 C0.00120652174,43.1927562 0.52725,43.7183562 1.17877174,43.7183562 L2.68853261,43.7183562 C3.34005435,43.7183562 3.86529348,43.1899562 3.86529348,42.5431562 L3.77038043,31.0455562 C3.77038043,31.0455562 9.99965217,42.2395562 10.2658913,42.6803562 C10.6250326,43.2759562 11.2335217,43.7183562 12.1146848,43.7183562 L14.2775761,43.7187562 C14.9286957,43.7187562 15.4547391,43.1927562 15.4547391,42.5455562 L15.4535326,28.0663562 L41.5827717,28.0667562 C42.0271739,28.0667562 42.3879239,27.7107562 42.3879239,27.2683562 L42.3879239,26.0855562 C42.3879239,25.6431562 42.0259674,25.2867562 41.5815652,25.2867562" id="Fill-23"></path>
                <path d="M36.9477174,32.4071562 C38.1924457,32.4071562 39.1234783,32.8563562 39.4592935,33.6327562 C39.620163,34.0051562 39.9318478,34.0771562 40.3609674,34.0771562 L42.0722174,34.0771562 C42.3553478,34.0771562 42.6803043,33.8351562 42.6803043,33.4667562 C42.6803043,31.4875562 40.3074783,29.7203562 36.9457065,29.7203562 C33.4693152,29.7203562 31.1865761,31.3679562 31.1865761,33.9919562 C31.1865761,35.9991562 32.7811957,37.1939562 34.7421957,37.7039562 C35.6358261,37.9359562 37.1616739,38.3111562 37.9048913,38.5051562 C38.7060217,38.7135562 39.4218913,38.9575562 39.4218913,39.6399562 C39.4218913,40.7171562 38.2805217,41.0835562 37.0341848,41.0835562 C35.853,41.0835562 34.6766413,40.5591562 34.3392174,39.7207562 C34.144163,39.2355562 33.801913,39.1655562 33.2835109,39.1655562 L31.5420978,39.1655562 C31.2388587,39.1655562 30.8889674,39.4251562 30.8889674,39.8187562 L30.8889674,40.0419562 C30.8889674,41.9575562 33.4729348,43.9635562 37.0374022,43.9635562 C39.5650652,43.9635562 43.0865,42.9187562 43.0865,39.5471562 C43.0865,37.5947562 41.773,36.2431562 39.6354457,35.7031562 C38.8001304,35.4919562 36.7904674,34.9835562 36.3537065,34.8711562 C35.5746957,34.6711562 34.8475652,34.4183562 34.8475652,33.7539562 C34.8475652,32.7487562 35.7822174,32.4071562 36.9477174,32.4071562" id="Fill-24"></path>
                <path d="M55.8177174,26.1675562 C55.8177174,25.5791562 55.3395326,25.1019562 54.7479348,25.1019562 L53.1637717,25.1011562 C52.5713696,25.1011562 52.093587,25.5811562 52.093587,26.1699562 L52.0947935,42.6519562 C52.0947935,43.2411562 52.5721739,43.7183562 53.1641739,43.7183562 L54.7487391,43.7187562 C55.340337,43.7187562 55.8177174,43.2387562 55.8177174,42.6507562 L55.8177174,26.1675562" id="Fill-25"></path>
                <path d="M57.8374348,26.6059562 L57.8370326,27.3895562 C57.8370326,27.7135562 58.1032717,27.9755562 58.429837,27.9755562 L69.3617283,27.9755562 C69.8604239,27.9755562 70.2642065,27.5751562 70.2642065,27.0791562 L70.2646087,25.7519562 C70.2646087,25.2563562 69.8555978,24.8075562 69.3601196,24.8555562 C69.3601196,24.8555562 58.793,25.8871562 58.4523587,25.9251562 C58.0590326,25.9691562 57.8374348,26.2811562 57.8374348,26.6059562" id="Fill-26"></path>
                <path d="M48.9875978,43.7191562 C46.2685,43.7191562 44.5568478,41.6683562 44.5568478,39.3851562 L44.5544348,32.7899562 L43.7762283,32.7899562 C43.361587,32.7899562 43.0249674,32.4571562 43.0249674,32.0443562 L43.0249674,30.9403562 C43.0249674,30.5279562 43.3627935,30.1963562 43.7774348,30.1963562 L44.5544348,30.1975562 L44.5532283,26.1427562 C44.5532283,25.5687562 45.0189457,25.1031562 45.5960652,25.1031562 L47.1408152,25.1031562 C47.7179348,25.1031562 48.1844565,25.5719562 48.1844565,26.1459562 L48.1852609,30.1975562 L50.5942826,30.1971562 C51.0097283,30.1971562 51.3471522,30.5291562 51.3471522,30.9415562 L51.3471522,32.0455562 C51.3471522,32.4579562 51.0109348,32.7903562 50.5962935,32.7903562 L48.1852609,32.7899562 L48.1868696,38.8899562 C48.1868696,40.0879562 48.9168152,40.9051562 50.2210652,40.9051562 L50.4398478,40.9039562 C50.8898804,40.9039562 51.256663,41.2643562 51.256663,41.7119562 L51.256663,42.9107562 C51.256663,43.3591562 50.8918913,43.7191562 50.4410543,43.7191562 L48.9875978,43.7191562" id="Fill-27"></path>
                <path d="M30.3685543,36.7491562 C30.3685543,33.2331562 28.2756413,29.7223562 23.5207391,29.7223562 C19.1245761,29.7223562 16.65925,33.1439562 16.65925,36.7499562 C16.65925,40.5915562 19.3003261,43.9751562 23.5496957,43.9751562 C26.4582174,43.9751562 29.3253152,42.4511562 29.8670435,39.9475562 C29.9402391,39.6099562 29.7114022,39.1667562 29.2332174,39.1655562 L27.1551848,39.1655562 C26.7775435,39.1655562 26.4690761,39.3451562 26.2832717,39.6159562 C25.6888587,40.4835562 24.8173478,40.9447562 23.529587,40.9447562 C21.7093478,40.9447562 20.4473261,39.5183562 20.3520109,37.9367562 L29.190587,37.9367562 C30.004587,37.9367562 30.3685543,37.4971562 30.3685543,36.7491562 Z M20.3793587,35.2467562 C20.5209239,33.6923562 21.8979674,32.5439562 23.5207391,32.5439562 C25.1435109,32.5439562 26.5442826,33.6923562 26.6866522,35.2463562 L20.3793587,35.2467562 Z" id="Fill-28"></path>
                <path d="M70.6430543,36.7491562 C70.6430543,33.2331562 68.5505435,29.7223562 63.7956413,29.7223562 C59.3994783,29.7223562 56.9341522,33.1439562 56.9341522,36.7499562 C56.9341522,40.5915562 59.5752283,43.9751562 63.8241957,43.9751562 C66.7327174,43.9751562 69.6002174,42.4511562 70.1419457,39.9475562 C70.2155435,39.6099562 69.9863043,39.1667562 69.5085217,39.1655562 L67.4296848,39.1655562 C67.0528478,39.1655562 66.7439783,39.3451562 66.5581739,39.6159562 C65.964163,40.4835562 65.0918478,40.9447562 63.804087,40.9447562 C61.9838478,40.9447562 60.7222283,39.5183562 60.6265109,37.9367562 L69.4654891,37.9367562 C70.279087,37.9367562 70.6430543,37.4971562 70.6430543,36.7491562 Z M60.6538587,35.2467562 C60.7958261,33.6923562 62.1724674,32.5439562 63.7956413,32.5439562 C65.4188152,32.5439562 66.8191848,33.6923562 66.9615543,35.2463562 L60.6538587,35.2467562 Z" id="Fill-29"></path>
                <path d="M41.5815652,25.2867562 L12.9520109,25.2867562 C12.3004891,25.2867562 11.77525,25.8119562 11.77525,26.4591562 L11.8741848,37.6423562 C11.8741848,37.6423562 5.70443478,26.5595562 5.38309783,25.9939562 C5.08066304,25.4619562 4.43115217,24.9723562 3.53229348,24.9723562 L1.17796739,24.9723562 C0.52725,24.9723562 0,25.4967562 0,26.1451562 L0.00120652174,42.5455562 C0.00120652174,43.1927562 0.52725,43.7183562 1.17877174,43.7183562 L2.68853261,43.7183562 C3.34005435,43.7183562 3.86529348,43.1899562 3.86529348,42.5431562 L3.77038043,31.0455562 C3.77038043,31.0455562 9.99965217,42.2395562 10.2658913,42.6803562 C10.6250326,43.2759562 11.2335217,43.7183562 12.1146848,43.7183562 L14.2775761,43.7187562 C14.9286957,43.7187562 15.4547391,43.1927562 15.4547391,42.5455562 L15.4535326,28.0663562 L41.5827717,28.0667562 C42.0271739,28.0667562 42.3879239,27.7107562 42.3879239,27.2683562 L42.3879239,26.0855562 C42.3879239,25.6431562 42.0259674,25.2867562 41.5815652,25.2867562" id="Fill-30"></path>
                <path d="M36.9477174,32.4071562 C38.1924457,32.4071562 39.1234783,32.8563562 39.4592935,33.6327562 C39.620163,34.0051562 39.9318478,34.0771562 40.3609674,34.0771562 L42.0722174,34.0771562 C42.3553478,34.0771562 42.6803043,33.8351562 42.6803043,33.4667562 C42.6803043,31.4875562 40.3074783,29.7203562 36.9457065,29.7203562 C33.4693152,29.7203562 31.1865761,31.3679562 31.1865761,33.9919562 C31.1865761,35.9991562 32.7811957,37.1939562 34.7421957,37.7039562 C35.6358261,37.9359562 37.1616739,38.3111562 37.9048913,38.5051562 C38.7060217,38.7135562 39.4218913,38.9575562 39.4218913,39.6399562 C39.4218913,40.7171562 38.2805217,41.0835562 37.0341848,41.0835562 C35.853,41.0835562 34.6766413,40.5591562 34.3392174,39.7207562 C34.144163,39.2355562 33.801913,39.1655562 33.2835109,39.1655562 L31.5420978,39.1655562 C31.2388587,39.1655562 30.8889674,39.4251562 30.8889674,39.8187562 L30.8889674,40.0419562 C30.8889674,41.9575562 33.4729348,43.9635562 37.0374022,43.9635562 C39.5650652,43.9635562 43.0865,42.9187562 43.0865,39.5471562 C43.0865,37.5947562 41.773,36.2431562 39.6354457,35.7031562 C38.8001304,35.4919562 36.7904674,34.9835562 36.3537065,34.8711562 C35.5746957,34.6711562 34.8475652,34.4183562 34.8475652,33.7539562 C34.8475652,32.7487562 35.7822174,32.4071562 36.9477174,32.4071562" id="Fill-31"></path>
                <path d="M71.8708913,43.0263562 L71.4827935,43.0263562 L71.4827935,41.2211562 L72.1608587,41.2211562 C72.6293913,41.2211562 72.9056848,41.3543562 72.9056848,41.7671562 C72.9056848,42.0991562 72.7094239,42.2187562 72.4685217,42.2367562 L72.9318261,43.0263562 L72.4729457,43.0263562 L72.0538804,42.2679562 L71.8708913,42.2679562 L71.8708913,43.0263562 Z M72.2143478,41.9619562 C72.3884891,41.9619562 72.4906413,41.9263562 72.4906413,41.7263562 C72.4906413,41.5407562 72.2899565,41.5275562 72.143163,41.5275562 L71.8708913,41.5275562 L71.8708913,41.9619562 L72.2143478,41.9619562 Z M72.1516087,43.8023562 C71.2555652,43.8023562 70.45725,43.1859562 70.45725,42.1255562 C70.45725,41.0659562 71.2555652,40.4495562 72.1516087,40.4495562 C73.0440326,40.4495562 73.8423478,41.0659562 73.8423478,42.1255562 C73.8423478,43.1859562 73.0440326,43.8023562 72.1516087,43.8023562 Z M72.1516087,40.8399562 C71.4827935,40.8399562 70.9434783,41.3543562 70.9434783,42.1255562 C70.9434783,42.8971562 71.4827935,43.4163562 72.1516087,43.4119562 L72.1516087,43.4163562 C72.8031304,43.4163562 73.3561196,42.8971562 73.3561196,42.1255562 C73.3561196,41.3543562 72.8031304,40.8399562 72.1516087,40.8399562 Z" id="Fill-32"></path>
            </g>
        </g>
    </g>
</svg>