
<svg width="21px" height="21px" viewBox="0 0 21 21" version="1.1" xmlns="http://www.w3.org/2000/svg" xmlns:xlink="http://www.w3.org/1999/xlink">
    <!-- Generator: Sketch 50.2 (55047) - http://www.bohemiancoding.com/sketch -->
    <desc>Created with Sketch.</desc>
    <defs></defs>
    <g id="Page-1" stroke="none" stroke-width="1" fill="none" fill-rule="evenodd" stroke-linecap="round" stroke-linejoin="round">
        <g id="ICU_Cal_Dieat-Plan" transform="translate(-617.000000, -181.000000)" stroke="#226175" stroke-width="1.2">
            <g id="Orion_edit-note" transform="translate(618.000000, 182.000000)">
                <path d="M9.31,17.7333333 L0,17.7333333 L0,0 L13.9333333,0 L13.9333333,11.7166667 M3.16666667,0 L3.16666667,2.53333333 M2.53333333,2.53333333 L3.8,2.53333333 M2.53333333,6.53333333 L10.8033338,6.53333333 M2.53333333,9.53333333 L10.8033338,9.53333333 M2.53333333,12.5333333 L10.8033338,12.5333333 M6.96666667,0 L6.96666667,2.53333333 M6.33333333,2.53333333 L7.6,2.53333333 M10.7666667,0 L10.7666667,2.53333333 M10.1333333,2.53333333 L11.4,2.53333333" id="Shape"></path>
                <path d="M16.7833333,8.86666667 L10.1966667,15.4216667 L8.80333333,19 L12.4133333,17.6383333 L19,11.0833333 L16.7833333,8.86666667 Z M10.1966667,15.4216667 L12.4133333,17.6383333 L10.1966667,15.4216667 Z" id="Shape"></path>
            </g>
        </g>
    </g>
</svg>