
<svg width="13px" height="14px" viewBox="0 0 13 14" version="1.1" xmlns="http://www.w3.org/2000/svg" xmlns:xlink="http://www.w3.org/1999/xlink">
    <!-- Generator: Sketch 50.2 (55047) - http://www.bohemiancoding.com/sketch -->
    <desc>Created with Sketch.</desc>
    <defs></defs>
    <g id="Page-1" stroke="none" stroke-width="1" fill="none" fill-rule="evenodd">
        <g id="ICU_Cal_Dieat-Plan" transform="translate(-34.000000, -98.000000)" fill="#333333" fill-rule="nonzero">
            <g id="Bar-Adress" transform="translate(0.000000, 74.000000)">
                <path d="M41.969459,33.5436722 C40.0982386,34.9275754 37.4511059,34.8532511 35.6543755,33.2354678 C33.6022552,31.3877304 33.4365702,28.2262712 35.2843076,26.1741509 C37.1320449,24.1220306 40.2935042,23.9563456 42.3456245,25.8040829 C44.2759453,27.5421516 44.5371165,30.4426235 43.0234467,32.4887842 L46.8280041,36.2933417 L45.7735663,37.3477795 L41.969459,33.5436722 Z M41.972554,32.196275 C43.4507439,30.5545788 43.3181958,28.0254114 41.6764996,26.5472214 C40.0348034,25.0690315 37.505636,25.2015796 36.027446,26.8432758 C34.5492561,28.484972 34.6818042,31.0141394 36.3235004,32.4923293 C37.9651966,33.9705193 40.494364,33.8379712 41.972554,32.196275 Z" id="Search"></path>
            </g>
        </g>
    </g>
</svg>