
<svg width="51px" height="51px" viewBox="0 0 51 51" version="1.1" xmlns="http://www.w3.org/2000/svg" xmlns:xlink="http://www.w3.org/1999/xlink">
    <!-- Generator: Sketch 50.2 (55047) - http://www.bohemiancoding.com/sketch -->
    <desc>Created with Sketch.</desc>
    <defs></defs>
    <g id="Page-1" stroke="none" stroke-width="1" fill="none" fill-rule="evenodd">
        <g id="ICU_Cal_Dieat-Plan" transform="translate(-719.000000, -1029.000000)" fill="#2989CB">
            <path d="M770,1054.5 C770,1068.58385 758.583846,1080 744.5,1080 C730.416154,1080 719,1068.58385 719,1054.5 C719,1040.41615 730.416154,1029 744.5,1029 C758.583846,1029 770,1040.41615 770,1054.5 Z M744.5,1059.75 C746.9855,1059.75 749,1057.7355 749,1055.25 L749,1045.5 C749,1043.0145 746.9855,1041 744.5,1041 C742.0145,1041 740,1043.0145 740,1045.5 L740,1055.25 C740,1057.7355 742.0145,1059.75 744.5,1059.75 Z M750.5,1050.75 L750.5,1055.25 L750.506,1055.25 C750.506,1058.5155 747.8855,1061.1765 744.638,1061.25 L744.362,1061.25 C741.1145,1061.1765 738.494,1058.5155 738.494,1055.25 L738.5,1055.25 L738.5,1050.75 L737,1050.75 L737,1055.25 L737.006,1055.25 C737.006,1059.129 739.9685,1062.327 743.75,1062.705 L743.75,1066.5 L739.25,1066.5 L739.25,1068 L749.75,1068 L749.75,1066.5 L745.25,1066.5 L745.25,1062.705 C749.0315,1062.327 751.994,1059.129 751.994,1055.25 L752,1055.25 L752,1050.75 L750.5,1050.75 Z" id="Mic-Icon"></path>
        </g>
    </g>
</svg>