
<svg width="31px" height="31px" viewBox="0 0 31 31" version="1.1" xmlns="http://www.w3.org/2000/svg" xmlns:xlink="http://www.w3.org/1999/xlink">
    <!-- Generator: Sketch 50.2 (55047) - http://www.bohemiancoding.com/sketch -->
    <desc>Created with Sketch.</desc>
    <defs></defs>
    <g id="Page-1" stroke="none" stroke-width="1" fill="none" fill-rule="evenodd">
        <g id="ICU_Cal_Notes" transform="translate(-749.000000, -1050.000000)" fill="#2989CB">
            <path d="M780,1065.5 C780,1074.06077 773.060769,1081 764.5,1081 C755.939231,1081 749,1074.06077 749,1065.5 C749,1056.93923 755.939231,1050 764.5,1050 C773.060769,1050 780,1056.93923 780,1065.5 Z M764.5,1068.69118 C766.010794,1068.69118 767.235294,1067.46668 767.235294,1065.95588 L767.235294,1060.02941 C767.235294,1058.51862 766.010794,1057.29412 764.5,1057.29412 C762.989206,1057.29412 761.764706,1058.51862 761.764706,1060.02941 L761.764706,1065.95588 C761.764706,1067.46668 762.989206,1068.69118 764.5,1068.69118 Z M768.147059,1063.22059 L768.147059,1065.95588 L768.150706,1065.95588 C768.150706,1067.94079 766.557853,1069.55826 764.583882,1069.60294 L764.416118,1069.60294 C762.442147,1069.55826 760.849294,1067.94079 760.849294,1065.95588 L760.852941,1065.95588 L760.852941,1063.22059 L759.941176,1063.22059 L759.941176,1065.95588 L759.944824,1065.95588 C759.944824,1068.31371 761.745559,1070.25759 764.044118,1070.48735 L764.044118,1072.79412 L761.308824,1072.79412 L761.308824,1073.70588 L767.691176,1073.70588 L767.691176,1072.79412 L764.955882,1072.79412 L764.955882,1070.48735 C767.254441,1070.25759 769.055176,1068.31371 769.055176,1065.95588 L769.058824,1065.95588 L769.058824,1063.22059 L768.147059,1063.22059 Z" id="Mic-Icon"></path>
        </g>
    </g>
</svg>